<svg width="14" height="18" viewBox="0 0 14 18" fill="none" xmlns="http://www.w3.org/2000/svg">
<path d="M7.43743 3.4265C7.38059 3.42711 7.32419 3.41653 7.27144 3.39534C7.21869 3.37416 7.17063 3.34279 7.13 3.30303C7.08938 3.26327 7.05698 3.2159 7.03467 3.16362C7.01235 3.11134 7.00055 3.05518 6.99994 2.99833C6.99994 1.34169 8.37192 3.96064e-05 10.0612 3.96064e-05C10.1181 -0.00073097 10.1746 0.00974951 10.2274 0.0308785C10.2802 0.0520075 10.3283 0.0833682 10.369 0.123158C10.4097 0.162947 10.4421 0.21038 10.4643 0.262731C10.4866 0.315081 10.4983 0.371315 10.4987 0.428201C10.4987 2.08485 9.12791 3.4265 7.43743 3.4265Z" fill="white"/>
<path d="M7.43741 3.4265C7.38057 3.42711 7.32416 3.41653 7.27141 3.39534C7.21866 3.37416 7.1706 3.34279 7.12998 3.30303C7.08935 3.26327 7.05695 3.2159 7.03464 3.16362C7.01232 3.11134 7.00052 3.05518 6.99991 2.99834C6.99991 1.34169 8.37189 3.96064e-05 10.0612 3.96064e-05C10.1181 -0.00073097 10.1746 0.00974951 10.2274 0.0308785C10.2802 0.0520075 10.3283 0.0833682 10.369 0.123158C10.4096 0.162947 10.442 0.210381 10.4643 0.262731C10.4865 0.315081 10.4982 0.371315 10.4987 0.428201C10.4987 2.08485 9.12788 3.4265 7.43741 3.4265ZM13.8248 12.4459C13.994 12.5695 14.0488 12.7959 13.9532 12.9802C12.4132 15.9972 11.1847 17.4998 10.0624 17.4998C9.53971 17.4998 9.02639 17.3342 8.52589 17.0122C8.16667 16.7815 7.75069 16.6547 7.32389 16.6456C6.8971 16.6366 6.47611 16.7456 6.10742 16.9608C5.50076 17.3167 4.92327 17.4998 4.37494 17.4998C2.72413 17.4998 0 12.5217 0 9.79058C0 6.87395 1.56215 4.65031 3.93745 4.65031C5.0551 4.65031 6.01992 4.81131 6.83075 5.13914C7.17374 5.27681 7.56224 5.26747 7.89707 5.10998C8.55506 4.79965 9.42305 4.65031 10.4987 4.65031C11.8135 4.65031 12.9603 5.29197 13.9123 6.53446C13.9468 6.57926 13.9719 6.63052 13.9861 6.6852C14.0004 6.73988 14.0035 6.79687 13.9954 6.85279C13.9872 6.90871 13.9679 6.96242 13.9386 7.01074C13.9093 7.05907 13.8706 7.10102 13.8248 7.13412C12.762 7.91577 12.2498 8.79193 12.2498 9.79058C12.2498 10.7881 12.762 11.6654 13.8248 12.4459Z" fill="white"/>
<path d="M13.8248 12.446C13.994 12.5696 14.0488 12.796 13.9532 12.9803C12.4132 15.9972 11.1847 17.4999 10.0624 17.4999C9.53971 17.4999 9.02639 17.3342 8.52589 17.0122C8.16667 16.7816 7.75069 16.6548 7.32389 16.6457C6.8971 16.6366 6.47611 16.7457 6.10742 16.9609C5.50076 17.3167 4.92327 17.4999 4.37494 17.4999C2.72413 17.4999 0 12.5218 0 9.79066C0 6.87403 1.56215 4.65039 3.93745 4.65039C5.0551 4.65039 6.01992 4.81139 6.83075 5.13922C7.17374 5.27688 7.56224 5.26755 7.89707 5.11005C8.55506 4.79972 9.42305 4.65039 10.4987 4.65039C11.8135 4.65039 12.9603 5.29205 13.9123 6.53453C13.9468 6.57934 13.9719 6.6306 13.9861 6.68528C14.0004 6.73996 14.0035 6.79695 13.9954 6.85286C13.9872 6.90878 13.9679 6.96249 13.9386 7.01082C13.9093 7.05914 13.8706 7.10109 13.8248 7.13419C12.762 7.91585 12.2498 8.79201 12.2498 9.79066C12.2498 10.7881 12.762 11.6655 13.8248 12.446Z" fill="white"/>
</svg>
