<svg width="14" height="16" viewBox="0 0 14 16" fill="none" xmlns="http://www.w3.org/2000/svg">
<path d="M6.53807 7.64209L0.0579834 14.674C0.130754 14.9411 0.261525 15.1874 0.440301 15.3942C0.619076 15.6009 0.841122 15.7626 1.08947 15.8668C1.33781 15.9711 1.60587 16.0151 1.87317 15.9956C2.14047 15.9761 2.39992 15.8935 2.63169 15.7542L9.92301 11.4531L6.53807 7.64209Z" fill="#EA4335"/>
<path d="M13.0905 6.44674L9.93754 4.57617L6.38843 7.80197L9.95197 11.443L13.081 9.59245C13.3582 9.44211 13.5903 9.21606 13.7523 8.9388C13.9143 8.66154 14 8.34364 14 8.01956C14 7.69548 13.9143 7.37759 13.7523 7.10032C13.5903 6.82306 13.3582 6.59702 13.081 6.44668L13.0905 6.44674Z" fill="#FBBC04"/>
<path d="M0.0579868 1.33057C0.0188183 1.48055 -0.000679643 1.63531 1.80816e-05 1.79067V14.2139C0.000424182 14.3693 0.0199034 14.5239 0.0579868 14.6741L6.76021 7.82227L0.0579868 1.33057Z" fill="#4285F4"/>
<path d="M6.58636 8.00214L9.9375 4.57622L2.65586 0.255065C2.38189 0.0888799 2.07029 0.000871313 1.7528 3.47391e-06C0.964921 -0.00158252 0.272249 0.540034 0.0579834 1.32538L6.58636 8.00214Z" fill="#34A853"/>
</svg>
